<?xml version="1.0" encoding="utf-8"?>
<!-- Generator: Adobe Illustrator 28.3.0, SVG Export Plug-In . SVG Version: 6.00 Build 0)  -->
<svg version="1.1" id="レイヤー_1" xmlns="http://www.w3.org/2000/svg" xmlns:xlink="http://www.w3.org/1999/xlink" x="0px"
	 y="0px" viewBox="0 0 512 512" style="enable-background:new 0 0 512 512;" xml:space="preserve">
<style type="text/css">
	.st0{fill:#009854;}
	.st1{fill:#FFFFFF;}
	.st2{fill:url(#SVGID_1_);}
	.st3{fill:#00765E;}
</style>
<g>
	<path class="st0" d="M511.36,395.81c0,63.47-51.45,114.91-114.91,114.91h-280.9c-63.47,0-114.91-51.45-114.91-114.91v-280.9
		C0.64,51.45,52.09,0,115.55,0h280.9c63.47,0,114.91,51.45,114.91,114.91V395.81z"/>
	<path class="st1" d="M484.55,381.06c0,56.8-46.05,102.85-102.85,102.85H130.3c-56.8,0-102.85-46.05-102.85-102.85v-251.4
		c0-56.8,46.05-102.85,102.85-102.85h251.4c56.8,0,102.85,46.05,102.85,102.85V381.06z"/>
	<g>
		<linearGradient id="SVGID_1_" gradientUnits="userSpaceOnUse" x1="256" y1="512" x2="256" y2="297.4962">
			<stop  offset="0" style="stop-color:#000000;stop-opacity:0.2"/>
			<stop  offset="0.6998" style="stop-color:#FFFFFF;stop-opacity:0"/>
		</linearGradient>
		<path class="st2" d="M0.64,297.5v100.07C0.64,460.77,52.35,512,115.55,512h280.9c63.2,0,114.91-51.23,114.91-114.43V297.5H0.64z"
			/>
	</g>
	<g>
		<path class="st3" d="M309.8,200.78c-15.27-14.92-37.07-20.33-57.25-14.7l-6.71-9.22l-16.15,40.28l43.27-2.99l-5.16-7.09
			c9.45-0.16,18.78,3.39,25.83,10.27c6.89,6.74,10.75,15.76,10.86,25.39c0.11,9.64-3.54,18.74-10.28,25.64
			c-6.74,6.89-15.75,10.75-25.39,10.87c-0.14,0-0.29,0-0.43,0c-9.48,0-18.42-3.64-25.21-10.28c-6.3-6.15-10.02-14.16-10.73-22.7
			c0.05-1.03,0.08-2.07,0.08-3.11c0-12.88-4.15-24.8-11.16-34.53c1.06-3.43,4.29-15.44-1.17-19.21c-5.68-3.91-14.12,1.92-15.94,3.28
			c-9.01-5.55-19.61-8.76-30.95-8.76c-11.34,0-21.94,3.21-30.95,8.76c-1.82-1.35-10.26-7.19-15.94-3.28
			c-5.46,3.76-2.23,15.78-1.17,19.21c-7.01,9.73-11.16,21.65-11.16,34.53c0,32.65,26.57,59.22,59.22,59.22
			c19.47,0,36.77-9.45,47.57-24c1.81,2.51,3.85,4.9,6.13,7.13c11.14,10.89,25.81,16.86,41.36,16.86c0.23,0,0.47,0,0.7-0.01
			c15.81-0.18,30.61-6.51,41.67-17.83c11.05-11.31,17.04-26.25,16.86-42.07C327.44,226.63,321.11,211.83,309.8,200.78z
			 M129.74,202.51c0,0-2.39-6.8,0.38-8.7c2.77-1.9,7.05,1.54,7.05,1.54L129.74,202.51z M150.2,270.8c2.52-1,5.66-1.36,8.88-0.97
			c3.53,0.42,6.72,1.66,9,3.49c2.12,1.69,3.15,3.67,2.93,5.57c-0.01,0.08-0.03,0.16-0.05,0.24c-0.07,0.4-0.2,0.79-0.38,1.17
			c0,0,0,0,0,0c-0.09,0.19-0.19,0.37-0.31,0.55c-0.01,0.01-0.02,0.02-0.03,0.04c-0.11,0.17-0.23,0.33-0.37,0.5
			c-0.02,0.03-0.05,0.06-0.07,0.08c-0.12,0.14-0.25,0.29-0.39,0.43c-0.05,0.05-0.11,0.1-0.17,0.15c-0.12,0.11-0.25,0.23-0.38,0.34
			c-0.1,0.08-0.21,0.16-0.32,0.23c-0.1,0.08-0.2,0.15-0.31,0.23c-0.22,0.15-0.46,0.29-0.71,0.43c-2.68,1.47-6.42,2.05-10.24,1.6
			c-3.53-0.42-6.72-1.66-9-3.49c-2.12-1.7-3.15-3.67-2.93-5.57c0.2-1.7,1.44-3.26,3.49-4.38C149.26,271.2,149.73,270.99,150.2,270.8
			z M175.65,278.9c-0.23-1.9,0.81-3.88,2.93-5.57c2.28-1.82,5.48-3.06,9-3.49c3.22-0.39,6.36-0.03,8.88,0.97l0,0
			c0.48,0.19,0.94,0.39,1.37,0.63c2.05,1.12,3.29,2.68,3.49,4.38c0.23,1.9-0.81,3.88-2.93,5.57c-2.28,1.82-5.47,3.06-9,3.49
			c-3.83,0.46-7.56-0.12-10.24-1.6c-0.25-0.14-0.48-0.28-0.71-0.43c-0.11-0.07-0.21-0.15-0.31-0.23c-0.11-0.08-0.22-0.15-0.32-0.23
			c-0.14-0.11-0.26-0.22-0.38-0.34c-0.05-0.05-0.11-0.1-0.16-0.15c-0.14-0.14-0.27-0.28-0.4-0.43c-0.02-0.03-0.05-0.05-0.07-0.08
			c-0.13-0.16-0.26-0.33-0.37-0.5c-0.01-0.01-0.02-0.02-0.02-0.03c-0.35-0.55-0.59-1.13-0.7-1.73h0
			C175.69,279.05,175.66,278.97,175.65,278.9z M198.39,269.05c-3.05-1.49-7.04-2.07-11.09-1.59c-3.96,0.48-7.59,1.9-10.21,3.99
			c-2.13,1.71-3.41,3.71-3.75,5.79c-0.34-2.08-1.63-4.08-3.76-5.79c-2.62-2.1-6.25-3.52-10.21-3.99c-4.05-0.49-8.04,0.1-11.09,1.59
			c-6.79-6.57-11.02-15.75-11.02-25.92c0-19.9,16.19-36.08,36.08-36.08c19.9,0,36.08,16.19,36.08,36.08
			C209.41,253.3,205.18,262.48,198.39,269.05z M216.92,202.51l-7.42-7.16c0,0,4.28-3.44,7.05-1.54
			C219.3,195.72,216.92,202.51,216.92,202.51z"/>
		<path class="st3" d="M184.52,246.71c-0.02,0.03-2.11,2.9-5.23,3.33c-1.84,0.25-3.73-0.39-5.61-1.91l-0.31-0.25l-0.94,0.01
			l-0.31,0.26c-1.85,1.57-3.72,2.26-5.57,2.05c-3.14-0.35-5.29-3.17-5.31-3.19c-0.37-0.5-1.07-0.6-1.57-0.23
			c-0.5,0.37-0.6,1.07-0.23,1.57c0.11,0.15,2.73,3.61,6.84,4.08c2.26,0.26,4.5-0.43,6.65-2.05c2.19,1.57,4.44,2.2,6.69,1.89
			c0.07-0.01,0.14-0.02,0.21-0.03c3.97-0.66,6.42-4.07,6.52-4.22c0.36-0.51,0.24-1.2-0.27-1.56
			C185.58,246.09,184.88,246.21,184.52,246.71z"/>
		<path class="st3" d="M199.6,237.76c-0.39,1.34-2.1,2.01-3.81,1.51c-1.71-0.5-2.78-1.99-2.38-3.33c0.39-1.34,2.09-2.01,3.8-1.51
			C198.93,234.93,199.99,236.42,199.6,237.76z"/>
		<path class="st3" d="M154.01,236.37c0.23,1.38-1.01,2.72-2.77,3.01c-1.76,0.29-3.37-0.59-3.59-1.96
			c-0.23-1.38,1.01-2.73,2.77-3.01C152.17,234.11,153.78,234.99,154.01,236.37z"/>
		<g>
			<path class="st3" d="M173.06,243.99c2.73,0.03,3.83,1.11,2.45,2.38s-3.62,1.25-4.97-0.06S170.33,243.95,173.06,243.99z"/>
		</g>
	</g>
	<path class="st0" d="M457.98,311.87l-4.85,0.58c0.31,1.01,0.47,2.47,0.47,3.48c0,2.65-2.2,4.42-5.42,4.55H333.89v-34.91
		c10.67,10.37,25.22,16.78,41.24,16.78c32.65,0,59.22-26.57,59.22-59.22c0-32.65-26.56-59.22-59.22-59.22
		c-16.02,0-30.57,6.41-41.24,16.78v-23.4l0,0l-0.03-15.5l-31.81,6.46l0.6,4.2c1.06-0.32,2.56-0.48,3.62-0.48
		c2.44,0,4.18,1.82,4.64,4.55v143.96H88.74V152.75c0.86-5.74,5.02-7.7,8.09-7.7h4.09v-5.53H53.27v5.53h5.28
		c3.74,0,6.41,2.17,7.21,6.26v180.56c-1.52,3.3-4.3,4.69-6.64,4.69h-4.09v5.6h10.74v0.03H310.9v17.59c-0.91,5.41-4.54,7.6-7.48,7.6
		h-4.04v5.46h47.11v-5.46h-5.22c-4.04,0-6.91-2.78-7.38-7.65v-17.54h115.08h3.66h5.43L457.98,311.87z M375.12,207.04
		c19.9,0,36.09,16.19,36.09,36.08c0,19.9-16.19,36.09-36.09,36.09c-19.9,0-36.09-16.19-36.09-36.09
		C339.04,223.23,355.22,207.04,375.12,207.04z"/>
</g>
</svg>
